STARTFONT 2.1
FONT -Adobe-Times-Bold-R-Normal--18-180-75-75-P-99-ISO8859-2
SIZE 18 75 75
FONTBOUNDINGBOX 21 21 -2 -4
COMMENT $XConsortium: timB18.bdf,v 1.14 95/01/26 18:05:57 gildea Exp $
COMMENT 
COMMENT +
COMMENT  Copyright 1984-1989, 1994 Adobe Systems Incorporated.
COMMENT  Copyright 1988, 1994 Digital Equipment Corporation.
COMMENT
COMMENT  Adobe is a trademark of Adobe Systems Incorporated which may be
COMMENT  registered in certain jurisdictions.
COMMENT  Permission to use these trademarks is hereby granted only in
COMMENT  association with the images described in this file.
COMMENT
COMMENT  Permission to use, copy, modify, distribute and sell this software
COMMENT  and its documentation for any purpose and without fee is hereby
COMMENT  granted, provided that the above copyright notices appear in all
COMMENT  copies and that both those copyright notices and this permission
COMMENT  notice appear in supporting documentation, and that the names of
COMMENT  Adobe Systems and Digital Equipment Corporation not be used in
COMMENT  advertising or publicity pertaining to distribution of the software
COMMENT  without specific, written prior permission.  Adobe Systems and
COMMENT  Digital Equipment Corporation make no representations about the
COMMENT  suitability of this software for any purpose.  It is provided "as
COMMENT  is" without express or implied warranty.
COMMENT -
COMMENT  
COMMENT  Translation to ISO8859-2 by Cub Soft;  Petr.Kolar@vslib.cz
COMMENT  
STARTPROPERTIES 28
FOUNDRY "Adobe"
FAMILY_NAME "Times"
WEIGHT_NAME "Bold"
SLANT "R"
SETWIDTH_NAME "Normal"
ADD_STYLE_NAME ""
PIXEL_SIZE 18
POINT_SIZE 180
RESOLUTION_X 75
RESOLUTION_Y 75
SPACING "P"
AVERAGE_WIDTH 99
CHARSET_REGISTRY "ISO8859"
CHARSET_ENCODING "2"
CAP_HEIGHT 13
X_HEIGHT 9
FONT_ASCENT 15
FONT_DESCENT 4
FACE_NAME "Times Bold"

STARTCHAR space
ENCODING 32
SWIDTH 250 0
DWIDTH 4 0
BBX 1 1 0 0
BITMAP
00
ENDCHAR
STARTCHAR exclam
ENCODING 33
SWIDTH 333 0
DWIDTH 6 0
BBX 3 13 1 0
BITMAP
40
e0
e0
e0
e0
e0
e0
40
40
00
e0
e0
e0
ENDCHAR
STARTCHAR quotedbl
ENCODING 34
SWIDTH 555 0
DWIDTH 10 0
BBX 6 6 2 7
BITMAP
cc
cc
cc
cc
88
88
ENDCHAR
STARTCHAR numbersign
ENCODING 35
SWIDTH 500 0
DWIDTH 9 0
BBX 10 14 -1 -1
BITMAP
0d80
0d80
0d80
0d80
7fc0
7fc0
1b00
1b00
ff80
ff80
3600
3600
3600
3600
ENDCHAR
STARTCHAR dollar
ENCODING 36
SWIDTH 500 0
DWIDTH 9 0
BBX 8 16 0 -2
BITMAP
18
7e
db
db
d8
f8
7c
3e
1f
1f
1b
db
db
7e
18
18
ENDCHAR
STARTCHAR percent
ENCODING 37
SWIDTH 1000 0
DWIDTH 18 0
BBX 14 13 1 0
BITMAP
3c18
77f0
e260
c240
c4c0
ed80
7378
06ec
06c4
0d84
1988
31d8
30e0
ENDCHAR
STARTCHAR ampersand
ENCODING 38
SWIDTH 833 0
DWIDTH 16 0
BBX 13 13 2 0
BITMAP
1e00
3300
3300
3300
3a00
1cf0
3c60
5e40
cf80
c780
e3c0
fff8
78f0
ENDCHAR
STARTCHAR apostrophe
ENCODING 39
SWIDTH 333 0
DWIDTH 6 0
BBX 4 6 1 7
BITMAP
70
70
70
30
60
c0
ENDCHAR
STARTCHAR parenleft
ENCODING 40
SWIDTH 333 0
DWIDTH 6 0
BBX 5 17 1 -4
BITMAP
08
10
30
60
60
e0
c0
c0
c0
c0
c0
e0
60
60
30
10
08
ENDCHAR
STARTCHAR parenright
ENCODING 41
SWIDTH 333 0
DWIDTH 6 0
BBX 5 17 0 -4
BITMAP
80
40
60
30
30
38
18
18
18
18
18
38
30
20
60
40
80
ENDCHAR
STARTCHAR asterisk
ENCODING 42
SWIDTH 500 0
DWIDTH 9 0
BBX 8 9 0 4
BITMAP
18
18
db
ff
3c
ff
db
18
18
ENDCHAR
STARTCHAR plus
ENCODING 43
SWIDTH 570 0
DWIDTH 11 0
BBX 10 10 1 0
BITMAP
0c00
0c00
0c00
0c00
ffc0
ffc0
0c00
0c00
0c00
0c00
ENDCHAR
STARTCHAR comma
ENCODING 44
SWIDTH 250 0
DWIDTH 5 0
BBX 4 6 0 -3
BITMAP
70
70
70
30
60
c0
ENDCHAR
STARTCHAR minus
ENCODING 45
SWIDTH 570 0
DWIDTH 11 0
BBX 9 2 1 4
BITMAP
ff80
ff80
ENDCHAR
STARTCHAR period
ENCODING 46
SWIDTH 250 0
DWIDTH 5 0
BBX 3 3 1 0
BITMAP
e0
e0
e0
ENDCHAR
STARTCHAR slash
ENCODING 47
SWIDTH 278 0
DWIDTH 6 0
BBX 5 13 0 0
BITMAP
18
18
18
30
30
30
20
60
60
60
c0
c0
c0
ENDCHAR
STARTCHAR zero
ENCODING 48
SWIDTH 500 0
DWIDTH 9 0
BBX 8 13 0 0
BITMAP
3c
66
67
e7
e7
e7
e7
e7
e7
e7
66
66
3c
ENDCHAR
STARTCHAR one
ENCODING 49
SWIDTH 500 0
DWIDTH 9 0
BBX 8 13 0 0
BITMAP
1c
3c
fc
1c
1c
1c
1c
1c
1c
1c
1c
1c
7f
ENDCHAR
STARTCHAR two
ENCODING 50
SWIDTH 500 0
DWIDTH 9 0
BBX 8 13 0 0
BITMAP
3c
7e
cf
87
07
07
06
0c
18
31
63
ff
ff
ENDCHAR
STARTCHAR three
ENCODING 51
SWIDTH 500 0
DWIDTH 9 0
BBX 8 13 0 0
BITMAP
3c
7e
8f
07
0e
3c
3e
0f
07
03
c3
e6
7c
ENDCHAR
STARTCHAR four
ENCODING 52
SWIDTH 500 0
DWIDTH 9 0
BBX 8 13 0 0
BITMAP
0e
1e
1e
2e
2e
4e
ce
8e
ff
ff
0e
0e
0e
ENDCHAR
STARTCHAR five
ENCODING 53
SWIDTH 500 0
DWIDTH 9 0
BBX 8 13 0 0
BITMAP
3f
7e
40
40
78
7e
0f
07
07
07
c7
ee
f8
ENDCHAR
STARTCHAR six
ENCODING 54
SWIDTH 500 0
DWIDTH 9 0
BBX 8 13 0 0
BITMAP
07
1c
30
60
60
fc
e6
e7
e7
e7
e7
66
3c
ENDCHAR
STARTCHAR seven
ENCODING 55
SWIDTH 500 0
DWIDTH 9 0
BBX 8 13 0 0
BITMAP
ff
ff
fe
86
0c
0c
0c
18
18
38
30
30
70
ENDCHAR
STARTCHAR eight
ENCODING 56
SWIDTH 500 0
DWIDTH 9 0
BBX 9 13 0 0
BITMAP
3e00
6700
e300
e300
f300
7e00
3e00
5f00
c780
c380
c380
6300
3c00
ENDCHAR
STARTCHAR nine
ENCODING 57
SWIDTH 500 0
DWIDTH 9 0
BBX 8 13 0 0
BITMAP
3c
66
e7
e7
e7
e7
67
3f
07
06
06
1c
f0
ENDCHAR
STARTCHAR colon
ENCODING 58
SWIDTH 333 0
DWIDTH 5 0
BBX 3 9 1 0
BITMAP
e0
e0
e0
00
00
00
e0
e0
e0
ENDCHAR
STARTCHAR semicolon
ENCODING 59
SWIDTH 333 0
DWIDTH 5 0
BBX 4 12 0 -3
BITMAP
70
70
70
00
00
00
70
70
70
30
60
c0
ENDCHAR
STARTCHAR less
ENCODING 60
SWIDTH 570 0
DWIDTH 11 0
BBX 9 9 1 0
BITMAP
0380
0f00
3c00
f000
c000
f000
3c00
0f00
0380
ENDCHAR
STARTCHAR equal
ENCODING 61
SWIDTH 570 0
DWIDTH 11 0
BBX 9 6 1 2
BITMAP
ff80
ff80
0000
0000
ff80
ff80
ENDCHAR
STARTCHAR greater
ENCODING 62
SWIDTH 570 0
DWIDTH 11 0
BBX 9 9 1 0
BITMAP
e000
7800
1e00
0780
0180
0780
1e00
7800
e000
ENDCHAR
STARTCHAR question
ENCODING 63
SWIDTH 500 0
DWIDTH 9 0
BBX 7 13 1 0
BITMAP
7c
ce
ee
ee
4e
0c
18
10
10
00
38
38
38
ENDCHAR
STARTCHAR at
ENCODING 64
SWIDTH 930 0
DWIDTH 17 0
BBX 15 16 1 -3
BITMAP
03e0
0f38
380c
3004
73b6
6776
e776
ee66
ee66
eeec
effc
67b8
7000
3800
1e00
07f0
ENDCHAR
STARTCHAR A
ENCODING 65
SWIDTH 722 0
DWIDTH 13 0
BBX 15 13 -1 0
BITMAP
0300
0380
0780
05c0
0dc0
08c0
18e0
1060
1ff0
3070
2038
6038
f8fe
ENDCHAR
STARTCHAR B
ENCODING 66
SWIDTH 667 0
DWIDTH 12 0
BBX 11 13 1 0
BITMAP
ff00
7380
71c0
71c0
71c0
7380
7f00
71c0
70e0
70e0
70e0
71c0
ff00
ENDCHAR
STARTCHAR C
ENCODING 67
SWIDTH 722 0
DWIDTH 13 0
BBX 12 13 1 0
BITMAP
0fb0
38f0
7030
7010
e000
e000
e000
e000
e000
7000
7030
3ce0
0f80
ENDCHAR
STARTCHAR D
ENCODING 68
SWIDTH 722 0
DWIDTH 14 0
BBX 12 13 1 0
BITMAP
ff00
71c0
70e0
7060
7070
7070
7070
7070
7070
7060
70e0
71c0
ff00
ENDCHAR
STARTCHAR E
ENCODING 69
SWIDTH 667 0
DWIDTH 12 0
BBX 10 13 1 0
BITMAP
ffc0
70c0
7040
7000
7000
7100
7f00
7100
7000
7000
7040
70c0
ffc0
ENDCHAR
STARTCHAR F
ENCODING 70
SWIDTH 611 0
DWIDTH 11 0
BBX 10 13 1 0
BITMAP
ffc0
70c0
7040
7000
7000
7100
7f00
7100
7000
7000
7000
7000
f800
ENDCHAR
STARTCHAR G
ENCODING 71
SWIDTH 778 0
DWIDTH 15 0
BBX 13 13 1 0
BITMAP
0fb0
3870
7030
7010
e000
e000
e000
e0f8
e070
7070
7070
38f0
0fc0
ENDCHAR
STARTCHAR H
ENCODING 72
SWIDTH 778 0
DWIDTH 15 0
BBX 13 13 1 0
BITMAP
f8f8
7070
7070
7070
7070
7070
7ff0
7070
7070
7070
7070
7070
f8f8
ENDCHAR
STARTCHAR I
ENCODING 73
SWIDTH 389 0
DWIDTH 7 0
BBX 5 13 1 0
BITMAP
f8
70
70
70
70
70
70
70
70
70
70
70
f8
ENDCHAR
STARTCHAR J
ENCODING 74
SWIDTH 500 0
DWIDTH 9 0
BBX 8 15 0 -2
BITMAP
1f
0e
0e
0e
0e
0e
0e
0e
0e
0e
0e
0e
ee
ec
78
ENDCHAR
STARTCHAR K
ENCODING 75
SWIDTH 778 0
DWIDTH 15 0
BBX 13 13 2 0
BITMAP
f9f0
70c0
7180
7300
7600
7c00
7c00
7e00
7700
7380
71c0
71e0
f8f8
ENDCHAR
STARTCHAR L
ENCODING 76
SWIDTH 667 0
DWIDTH 12 0
BBX 10 13 1 0
BITMAP
f800
7000
7000
7000
7000
7000
7000
7000
7000
7040
7040
70c0
ffc0
ENDCHAR
STARTCHAR M
ENCODING 77
SWIDTH 944 0
DWIDTH 17 0
BBX 15 13 1 0
BITMAP
f01e
701c
783c
783c
7c5c
5c5c
5edc
4e9c
4f9c
471c
471c
431c
e23e
ENDCHAR
STARTCHAR N
ENCODING 78
SWIDTH 722 0
DWIDTH 14 0
BBX 12 13 1 0
BITMAP
f070
7820
7820
7c20
5e20
4e20
4f20
47a0
43a0
43e0
41e0
40e0
e060
ENDCHAR
STARTCHAR O
ENCODING 79
SWIDTH 778 0
DWIDTH 15 0
BBX 13 13 1 0
BITMAP
0f80
38e0
7070
6030
e038
e038
e038
e038
e038
6030
7070
38e0
0f80
ENDCHAR
STARTCHAR P
ENCODING 80
SWIDTH 611 0
DWIDTH 11 0
BBX 10 13 1 0
BITMAP
ff00
7380
71c0
71c0
71c0
7380
7f00
7000
7000
7000
7000
7000
f800
ENDCHAR
STARTCHAR Q
ENCODING 81
SWIDTH 778 0
DWIDTH 15 0
BBX 13 17 1 -4
BITMAP
0f80
38e0
7070
7070
e038
e038
e038
e038
e038
7070
7070
38e0
0f80
0f00
0780
03e0
00f8
ENDCHAR
STARTCHAR R
ENCODING 82
SWIDTH 722 0
DWIDTH 13 0
BBX 12 13 1 0
BITMAP
ff00
7380
71c0
71c0
71c0
7380
7f00
7700
7380
71c0
71c0
70e0
f8f0
ENDCHAR
STARTCHAR S
ENCODING 83
SWIDTH 556 0
DWIDTH 11 0
BBX 9 13 1 0
BITMAP
3d00
7380
e180
e080
f000
7c00
3f00
0f80
0380
8180
c180
e300
be00
ENDCHAR
STARTCHAR T
ENCODING 84
SWIDTH 667 0
DWIDTH 12 0
BBX 11 13 0 0
BITMAP
ffe0
ce60
8e20
8e20
0e00
0e00
0e00
0e00
0e00
0e00
0e00
0e00
3f80
ENDCHAR
STARTCHAR U
ENCODING 85
SWIDTH 722 0
DWIDTH 13 0
BBX 12 13 1 0
BITMAP
f8f0
7020
7020
7020
7020
7020
7020
7020
7020
7020
7060
38c0
1f80
ENDCHAR
STARTCHAR V
ENCODING 86
SWIDTH 722 0
DWIDTH 14 0
BBX 14 13 0 0
BITMAP
fc7c
7818
3810
3c30
1c20
1e60
1e40
0ec0
0f80
0780
0700
0300
0200
ENDCHAR
STARTCHAR W
ENCODING 87
SWIDTH 1000 0
DWIDTH 18 0
BBX 18 13 0 0
BITMAP
fdf7c0
79e180
38e100
3ce300
3ce200
1c7200
1e7600
0e7400
0ebc00
0f3c00
073c00
061800
061800
ENDCHAR
STARTCHAR X
ENCODING 88
SWIDTH 722 0
DWIDTH 13 0
BBX 14 13 0 0
BITMAP
f8f8
7070
3860
38c0
1d80
0f00
0700
0780
0fc0
19c0
30e0
70f0
f9fc
ENDCHAR
STARTCHAR Y
ENCODING 89
SWIDTH 722 0
DWIDTH 13 0
BBX 13 13 0 0
BITMAP
fc78
7830
3860
3c40
1ec0
0e80
0f80
0700
0700
0700
0700
0700
1fc0
ENDCHAR
STARTCHAR Z
ENCODING 90
SWIDTH 667 0
DWIDTH 12 0
BBX 10 13 1 0
BITMAP
ffc0
c3c0
8380
0780
0f00
0e00
1e00
3c00
3800
7840
f040
e0c0
ffc0
ENDCHAR
STARTCHAR bracketleft
ENCODING 91
SWIDTH 333 0
DWIDTH 6 0
BBX 4 16 1 -3
BITMAP
f0
c0
c0
c0
c0
c0
c0
c0
c0
c0
c0
c0
c0
c0
c0
f0
ENDCHAR
STARTCHAR backslash
ENCODING 92
SWIDTH 278 0
DWIDTH 5 0
BBX 5 13 0 0
BITMAP
c0
c0
c0
60
60
60
20
30
30
30
18
18
18
ENDCHAR
STARTCHAR bracketright
ENCODING 93
SWIDTH 333 0
DWIDTH 6 0
BBX 4 16 1 -3
BITMAP
f0
30
30
30
30
30
30
30
30
30
30
30
30
30
30
f0
ENDCHAR
STARTCHAR asciicircum
ENCODING 94
SWIDTH 581 0
DWIDTH 11 0
BBX 8 7 1 6
BITMAP
18
18
3c
24
66
c3
c3
ENDCHAR
STARTCHAR underscore
ENCODING 95
SWIDTH 500 0
DWIDTH 9 0
BBX 9 2 0 -4
BITMAP
ff80
ff80
ENDCHAR
STARTCHAR grave
ENCODING 96
SWIDTH 333 0
DWIDTH 6 0
BBX 4 3 1 10
BITMAP
c0
60
10
ENDCHAR
STARTCHAR a
ENCODING 97
SWIDTH 500 0
DWIDTH 9 0
BBX 9 9 0 0
BITMAP
3e00
e700
e700
0f00
7700
e700
e700
ff00
3b80
ENDCHAR
STARTCHAR b
ENCODING 98
SWIDTH 556 0
DWIDTH 9 0
BBX 9 13 -1 0
BITMAP
f000
7000
7000
7000
7600
7f00
7380
7380
7380
7380
7380
7300
6e00
ENDCHAR
STARTCHAR c
ENCODING 99
SWIDTH 444 0
DWIDTH 8 0
BBX 7 9 0 0
BITMAP
3e
76
e6
e0
e0
e0
e0
76
3c
ENDCHAR
STARTCHAR d
ENCODING 100
SWIDTH 556 0
DWIDTH 10 0
BBX 9 13 0 0
BITMAP
0f00
0700
0700
0700
3700
7f00
e700
e700
e700
e700
e700
7700
3b80
ENDCHAR
STARTCHAR e
ENCODING 101
SWIDTH 444 0
DWIDTH 8 0
BBX 8 9 0 0
BITMAP
3c
66
e7
ff
e0
e0
e0
73
3e
ENDCHAR
STARTCHAR f
ENCODING 102
SWIDTH 333 0
DWIDTH 6 0
BBX 7 13 0 0
BITMAP
3e
76
70
70
fc
70
70
70
70
70
70
70
f8
ENDCHAR
STARTCHAR g
ENCODING 103
SWIDTH 500 0
DWIDTH 9 0
BBX 9 13 0 -4
BITMAP
3f80
e700
e700
e700
e600
7800
3000
7f00
7f80
e380
c180
e700
7e00
ENDCHAR
STARTCHAR h
ENCODING 104
SWIDTH 556 0
DWIDTH 11 0
BBX 10 13 0 0
BITMAP
f000
7000
7000
7000
7700
7f80
7380
7380
7380
7380
7380
7380
fbc0
ENDCHAR
STARTCHAR i
ENCODING 105
SWIDTH 278 0
DWIDTH 5 0
BBX 5 13 -1 0
BITMAP
70
70
70
00
f0
70
70
70
70
70
70
70
f8
ENDCHAR
STARTCHAR j
ENCODING 106
SWIDTH 333 0
DWIDTH 5 0
BBX 6 17 -2 -4
BITMAP
1c
1c
1c
00
3c
1c
1c
1c
1c
1c
1c
1c
1c
1c
dc
d8
70
ENDCHAR
STARTCHAR k
ENCODING 107
SWIDTH 556 0
DWIDTH 10 0
BBX 10 13 0 0
BITMAP
f000
7000
7000
7000
7380
7300
7600
7c00
7c00
7e00
7700
7380
f7c0
ENDCHAR
STARTCHAR l
ENCODING 108
SWIDTH 278 0
DWIDTH 6 0
BBX 5 13 0 0
BITMAP
f0
70
70
70
70
70
70
70
70
70
70
70
f8
ENDCHAR
STARTCHAR m
ENCODING 109
SWIDTH 833 0
DWIDTH 16 0
BBX 15 9 0 0
BITMAP
f738
7bdc
739c
739c
739c
739c
739c
739c
fbde
ENDCHAR
STARTCHAR n
ENCODING 110
SWIDTH 556 0
DWIDTH 11 0
BBX 10 9 0 0
BITMAP
e700
7f80
7380
7380
7380
7380
7380
7380
fbc0
ENDCHAR
STARTCHAR o
ENCODING 111
SWIDTH 500 0
DWIDTH 9 0
BBX 8 9 0 0
BITMAP
3c
66
e7
e7
e7
e7
e7
66
3c
ENDCHAR
STARTCHAR p
ENCODING 112
SWIDTH 556 0
DWIDTH 10 0
BBX 9 13 0 -4
BITMAP
e600
7f00
7380
7380
7380
7380
7380
7b00
7600
7000
7000
7000
f800
ENDCHAR
STARTCHAR q
ENCODING 113
SWIDTH 556 0
DWIDTH 9 0
BBX 9 13 0 -4
BITMAP
3900
7700
e700
e700
e700
e700
e700
7f00
3700
0700
0700
0700
0f80
ENDCHAR
STARTCHAR r
ENCODING 114
SWIDTH 444 0
DWIDTH 8 0
BBX 7 9 0 0
BITMAP
ee
76
70
70
70
70
70
70
f8
ENDCHAR
STARTCHAR s
ENCODING 115
SWIDTH 389 0
DWIDTH 7 0
BBX 6 9 0 0
BITMAP
7c
cc
e4
f0
78
3c
9c
cc
f8
ENDCHAR
STARTCHAR t
ENCODING 116
SWIDTH 333 0
DWIDTH 7 0
BBX 6 11 0 0
BITMAP
10
30
fc
70
70
70
70
70
70
74
38
ENDCHAR
STARTCHAR u
ENCODING 117
SWIDTH 556 0
DWIDTH 11 0
BBX 10 9 0 0
BITMAP
f780
7380
7380
7380
7380
7380
7380
7f80
3dc0
ENDCHAR
STARTCHAR v
ENCODING 118
SWIDTH 500 0
DWIDTH 9 0
BBX 10 9 -1 0
BITMAP
fbc0
7180
7900
3b00
3b00
1e00
1e00
0c00
0c00
ENDCHAR
STARTCHAR w
ENCODING 119
SWIDTH 722 0
DWIDTH 12 0
BBX 14 9 -1 0
BITMAP
f79c
7718
7390
3bb0
39a0
1de0
1fc0
0cc0
0cc0
ENDCHAR
STARTCHAR x
ENCODING 120
SWIDTH 500 0
DWIDTH 9 0
BBX 9 9 0 0
BITMAP
f380
7300
7a00
3c00
1c00
1e00
3700
6780
e380
ENDCHAR
STARTCHAR y
ENCODING 121
SWIDTH 500 0
DWIDTH 9 0
BBX 10 13 -1 -4
BITMAP
fbc0
7180
7900
3b00
3a00
1e00
1e00
0c00
0c00
0c00
c800
d800
f000
ENDCHAR
STARTCHAR z
ENCODING 122
SWIDTH 444 0
DWIDTH 8 0
BBX 7 9 0 0
BITMAP
fe
ce
8e
1c
38
70
72
e6
fe
ENDCHAR
STARTCHAR braceleft
ENCODING 123
SWIDTH 394 0
DWIDTH 8 0
BBX 7 17 0 -4
BITMAP
1e
38
30
30
30
30
30
60
c0
60
30
30
30
30
30
38
1e
ENDCHAR
STARTCHAR bar
ENCODING 124
SWIDTH 220 0
DWIDTH 4 0
BBX 2 17 1 -4
BITMAP
c0
c0
c0
c0
c0
c0
c0
c0
c0
c0
c0
c0
c0
c0
c0
c0
c0
ENDCHAR
STARTCHAR braceright
ENCODING 125
SWIDTH 394 0
DWIDTH 8 0
BBX 7 17 1 -4
BITMAP
f0
38
18
18
18
18
18
0c
06
0c
18
18
18
18
18
38
f0
ENDCHAR
STARTCHAR asciitilde
ENCODING 126
SWIDTH 520 0
DWIDTH 10 0
BBX 8 4 1 3
BITMAP
70
f9
9f
0e
ENDCHAR
STARTCHAR nobreakspace
ENCODING 160
SWIDTH 250 0
DWIDTH 4 0
BBX 1 1 0 0
BITMAP
00
ENDCHAR
STARTCHAR Aogonek
ENCODING 161
SWIDTH 722 0
DWIDTH 13 0
BBX 15 17 -1 -4
BITMAP
0300
0380
0780
05c0
0dc0
08c0
18e0
1060
1ff0
3070
2038
6038
f8fe
0100
0240
03c0
0180
ENDCHAR
STARTCHAR breve
ENCODING 162
SWIDTH 333 0
DWIDTH 6 0
BBX 5 3 0 10
BITMAP
88
f8
70
ENDCHAR
STARTCHAR Lstroke
ENCODING 163
SWIDTH 667 0
DWIDTH 12 0
BBX 11 13 0 0
BITMAP
7c00
3800
3a00
3e00
3c00
3800
7800
f800
b800
3800
3820
3860
7fe0
ENDCHAR
STARTCHAR currency
ENCODING 164
SWIDTH 500 0
DWIDTH 9 0
BBX 8 8 0 2
BITMAP
db
ff
66
c3
c3
66
ff
db
ENDCHAR
STARTCHAR Lcaron
ENCODING 165
SWIDTH 667 0
DWIDTH 12 0
BBX 10 15 1 0
BITMAP
01c0
01c0
f9c0
70c0
7180
7300
7000
7000
7000
7000
7000
7040
7040
70c0
ffc0
ENDCHAR
STARTCHAR Sacute
ENCODING 166
SWIDTH 556 0
DWIDTH 11 0
BBX 9 17 1 0
BITMAP
0300
0600
0800
0000
3d00
7380
e180
e080
f000
7c00
3f00
0f80
0380
8180
c180
e300
be00
ENDCHAR
STARTCHAR section
ENCODING 167
SWIDTH 500 0
DWIDTH 9 0
BBX 7 16 1 -3
BITMAP
3c
66
46
60
30
78
dc
ce
e6
76
3c
1c
0c
c4
cc
78
ENDCHAR
STARTCHAR diaeresis
ENCODING 168
SWIDTH 333 0
DWIDTH 6 0
BBX 6 2 0 10
BITMAP
cc
cc
ENDCHAR
STARTCHAR Scaron
ENCODING 169
SWIDTH 556 0
DWIDTH 11 0
BBX 9 17 1 0
BITMAP
2100
1e00
0c00
0000
3d00
7380
e180
e080
f000
7c00
3f00
0f80
0380
8180
c180
e300
be00
ENDCHAR
STARTCHAR Scedilla
ENCODING 170
SWIDTH 556 0
DWIDTH 11 0
BBX 9 17 1 -4
BITMAP
3d00
7380
e180
e080
f000
7c00
3f00
0f80
0380
8180
c180
e300
be00
0800
0600
2600
1c00
ENDCHAR
STARTCHAR Tcaron
ENCODING 171
SWIDTH 667 0
DWIDTH 12 0
BBX 11 17 0 0
BITMAP
1080
0f00
0600
0000
ffe0
ce60
8e20
8e20
0e00
0e00
0e00
0e00
0e00
0e00
0e00
0e00
3f80
ENDCHAR
STARTCHAR Zacute
ENCODING 172
SWIDTH 667 0
DWIDTH 12 0
BBX 10 17 1 0
BITMAP
0300
0600
0800
0000
ffc0
c3c0
8380
0780
0f00
0e00
1e00
3c00
3800
7840
f040
e0c0
ffc0
ENDCHAR
STARTCHAR hyphen
ENCODING 173
SWIDTH 333 0
DWIDTH 6 0
BBX 4 2 1 4
BITMAP
f0
f0
ENDCHAR
STARTCHAR Zcaron
ENCODING 174
SWIDTH 667 0
DWIDTH 12 0
BBX 10 17 1 0
BITMAP
2100
1e00
0c00
0000
ffc0
c3c0
8380
0780
0f00
0e00
1e00
3c00
3800
7840
f040
e0c0
ffc0
ENDCHAR
STARTCHAR Zabovedot
ENCODING 175
SWIDTH 667 0
DWIDTH 12 0
BBX 10 16 1 0
BITMAP
0c00
0c00
0000
ffc0
c3c0
8380
0780
0f00
0e00
1e00
3c00
3800
7840
f040
e0c0
ffc0
ENDCHAR
STARTCHAR degree
ENCODING 176
SWIDTH 400 0
DWIDTH 7 0
BBX 6 5 0 8
BITMAP
78
cc
cc
cc
78
ENDCHAR
STARTCHAR aogonek
ENCODING 177
SWIDTH 500 0
DWIDTH 9 0
BBX 9 13 0 -4
BITMAP
3e00
e700
e700
0f00
7700
e700
e700
ff00
3b80
0800
1200
1e00
0c00
ENDCHAR
STARTCHAR ogonek
ENCODING 178
SWIDTH 333 0
DWIDTH 6 0
BBX 4 4 2 -4
BITMAP
40
90
f0
60
ENDCHAR
STARTCHAR lstroke
ENCODING 179
SWIDTH 278 0
DWIDTH 6 0
BBX 7 13 -1 0
BITMAP
78
38
3a
3e
3c
38
38
78
f8
b8
38
38
7c
ENDCHAR
STARTCHAR acute
ENCODING 180
SWIDTH 333 0
DWIDTH 6 0
BBX 4 3 1 10
BITMAP
30
60
80
ENDCHAR
STARTCHAR lcaron
ENCODING 181
SWIDTH 533 0
DWIDTH 10 0
BBX 9 15 0 0
BITMAP
0380
0380
f380
7180
7300
7600
7000
7000
7000
7000
7000
7000
7000
7000
f800
ENDCHAR
STARTCHAR sacute
ENCODING 182
SWIDTH 389 0
DWIDTH 7 0
BBX 6 13 0 0
BITMAP
0c
18
20
00
7c
cc
e4
f0
78
3c
9c
cc
f8
ENDCHAR
STARTCHAR caron
ENCODING 183
SWIDTH 333 0
DWIDTH 6 0
BBX 6 3 0 10
BITMAP
84
78
30
ENDCHAR
STARTCHAR cedilla
ENCODING 184
SWIDTH 333 0
DWIDTH 6 0
BBX 5 4 1 -4
BITMAP
20
18
98
70
ENDCHAR
STARTCHAR scaron
ENCODING 185
SWIDTH 389 0
DWIDTH 7 0
BBX 6 13 0 0
BITMAP
84
78
30
00
7c
cc
e4
f0
78
3c
9c
cc
f8
ENDCHAR
STARTCHAR scedilla
ENCODING 186
SWIDTH 389 0
DWIDTH 7 0
BBX 6 13 0 -4
BITMAP
7c
cc
e4
f0
78
3c
9c
cc
f8
20
18
98
70
ENDCHAR
STARTCHAR tcaron
ENCODING 187
SWIDTH 533 0
DWIDTH 10 0
BBX 9 16 0 0
BITMAP
0380
0380
0380
0180
0300
1600
3000
fc00
7000
7000
7000
7000
7000
7000
7400
3800
ENDCHAR
STARTCHAR zacute
ENCODING 188
SWIDTH 444 0
DWIDTH 8 0
BBX 7 13 0 0
BITMAP
06
0c
10
00
fe
ce
8e
1c
38
70
72
e6
fe
ENDCHAR
STARTCHAR doubleacute
ENCODING 189
SWIDTH 333 0
DWIDTH 6 0
BBX 9 3 -1 10
BITMAP
3b80
6600
8800
ENDCHAR
STARTCHAR zcaron
ENCODING 190
SWIDTH 444 0
DWIDTH 8 0
BBX 7 13 0 0
BITMAP
42
3c
18
00
fe
ce
8e
1c
38
70
72
e6
fe
ENDCHAR
STARTCHAR zabovedot
ENCODING 191
SWIDTH 444 0
DWIDTH 8 0
BBX 7 12 0 0
BITMAP
18
18
00
fe
ce
8e
1c
38
70
72
e6
fe
ENDCHAR
STARTCHAR Racute
ENCODING 192
SWIDTH 722 0
DWIDTH 13 0
BBX 12 17 1 0
BITMAP
0300
0600
0800
0000
ff00
7380
71c0
71c0
71c0
7380
7f00
7700
7380
71c0
71c0
70e0
f8f0
ENDCHAR
STARTCHAR Aacute
ENCODING 193
SWIDTH 722 0
DWIDTH 13 0
BBX 15 17 -1 0
BITMAP
00c0
0180
0200
0000
0300
0380
0780
05c0
0dc0
08c0
18e0
1060
1ff0
3070
2038
6038
f8fe
ENDCHAR
STARTCHAR Acircumflex
ENCODING 194
SWIDTH 722 0
DWIDTH 13 0
BBX 15 17 -1 0
BITMAP
0300
0780
0840
0000
0300
0380
0780
05c0
0dc0
08c0
18e0
1060
1ff0
3070
2038
6038
f8fe
ENDCHAR
STARTCHAR Abreve
ENCODING 195
SWIDTH 722 0
DWIDTH 13 0
BBX 15 17 -1 0
BITMAP
0880
0f80
0700
0000
0300
0380
0780
05c0
0dc0
08c0
18e0
1060
1ff0
3070
2038
6038
f8fe
ENDCHAR
STARTCHAR Adiaeresis
ENCODING 196
SWIDTH 722 0
DWIDTH 13 0
BBX 15 16 -1 0
BITMAP
0cc0
0cc0
0000
0300
0380
0780
05c0
0dc0
08c0
18e0
1060
1ff0
3070
2038
6038
f8fe
ENDCHAR
STARTCHAR Lacute
ENCODING 197
SWIDTH 667 0
DWIDTH 12 0
BBX 10 17 1 0
BITMAP
0c00
1800
2000
0000
f800
7000
7000
7000
7000
7000
7000
7000
7000
7040
7040
70c0
ffc0
ENDCHAR
STARTCHAR Cacute
ENCODING 198
SWIDTH 722 0
DWIDTH 13 0
BBX 12 17 1 0
BITMAP
00c0
0180
0200
0000
0fb0
38f0
7030
7010
e000
e000
e000
e000
e000
7000
7030
3ce0
0f80
ENDCHAR
STARTCHAR Ccedilla
ENCODING 199
SWIDTH 722 0
DWIDTH 13 0
BBX 12 17 1 -4
BITMAP
0f90
38f0
7070
7030
e000
e000
e000
e000
e000
7000
7030
3ce0
0f80
0400
0300
1300
0e00
ENDCHAR
STARTCHAR Ccaron
ENCODING 200
SWIDTH 722 0
DWIDTH 13 0
BBX 12 17 1 0
BITMAP
0840
0780
0300
0000
0fb0
38f0
7030
7010
e000
e000
e000
e000
e000
7000
7030
3ce0
0f80
ENDCHAR
STARTCHAR Eacute
ENCODING 201
SWIDTH 667 0
DWIDTH 12 0
BBX 10 17 1 0
BITMAP
0300
0600
0800
0000
ffc0
70c0
7040
7000
7000
7100
7f00
7100
7000
7000
7040
70c0
ffc0
ENDCHAR
STARTCHAR Eogonek
ENCODING 202
SWIDTH 667 0
DWIDTH 12 0
BBX 10 17 1 -4
BITMAP
ffc0
70c0
7040
7000
7000
7100
7f00
7100
7000
7000
7040
70c0
ffc0
0800
1200
1e00
0c00
ENDCHAR
STARTCHAR Ediaeresis
ENCODING 203
SWIDTH 667 0
DWIDTH 12 0
BBX 10 16 1 0
BITMAP
3300
3300
0000
ffc0
70c0
7040
7000
7000
7100
7f00
7100
7000
7000
7040
70c0
ffc0
ENDCHAR
STARTCHAR Ecaron
ENCODING 204
SWIDTH 667 0
DWIDTH 12 0
BBX 10 17 1 0
BITMAP
2100
1e00
0c00
0000
ffc0
70c0
7040
7000
7000
7100
7f00
7100
7000
7000
7040
70c0
ffc0
ENDCHAR
STARTCHAR Iacute
ENCODING 205
SWIDTH 389 0
DWIDTH 7 0
BBX 5 17 1 0
BITMAP
18
30
40
00
f8
70
70
70
70
70
70
70
70
70
70
70
f8
ENDCHAR
STARTCHAR Icircumflex
ENCODING 206
SWIDTH 389 0
DWIDTH 7 0
BBX 6 17 1 0
BITMAP
30
78
84
00
f8
70
70
70
70
70
70
70
70
70
70
70
f8
ENDCHAR
STARTCHAR Dcaron
ENCODING 207
SWIDTH 722 0
DWIDTH 14 0
BBX 12 17 1 0
BITMAP
1080
0f00
0600
0000
ff00
71c0
70e0
7060
7070
7070
7070
7070
7070
7060
70e0
71c0
ff00
ENDCHAR
STARTCHAR Dstroke
ENCODING 208
SWIDTH 722 0
DWIDTH 14 0
BBX 13 13 0 0
BITMAP
7f80
38e0
3870
3830
3838
3838
fe38
3838
3838
3830
3870
38e0
7f80
ENDCHAR
STARTCHAR Nacute
ENCODING 209
SWIDTH 722 0
DWIDTH 14 0
BBX 12 17 1 0
BITMAP
0180
0300
0400
0000
f070
7820
7820
7c20
5e20
4e20
4f20
47a0
43a0
43e0
41e0
40e0
e060
ENDCHAR
STARTCHAR Ncaron
ENCODING 210
SWIDTH 722 0
DWIDTH 14 0
BBX 12 17 1 0
BITMAP
1080
0f00
0600
0000
f070
7820
7820
7c20
5e20
4e20
4f20
47a0
43a0
43e0
41e0
40e0
e060
ENDCHAR
STARTCHAR Oacute
ENCODING 211
SWIDTH 778 0
DWIDTH 15 0
BBX 13 17 1 0
BITMAP
00c0
0180
0200
0000
0f80
38e0
7070
6030
e038
e038
e038
e038
e038
6030
7070
38e0
0f80
ENDCHAR
STARTCHAR Ocircumflex
ENCODING 212
SWIDTH 778 0
DWIDTH 15 0
BBX 13 17 1 0
BITMAP
0300
0780
0840
0000
0f80
38e0
7070
6030
e038
e038
e038
e038
e038
6030
7070
38e0
0f80
ENDCHAR
STARTCHAR Odoubleacute
ENCODING 213
SWIDTH 778 0
DWIDTH 15 0
BBX 13 17 1 0
BITMAP
03b8
0660
0880
0000
0f80
38e0
7070
6030
e038
e038
e038
e038
e038
6030
7070
38e0
0f80
ENDCHAR
STARTCHAR Odiaeresis
ENCODING 214
SWIDTH 778 0
DWIDTH 15 0
BBX 13 16 1 0
BITMAP
0cc0
0cc0
0000
0f80
38e0
7070
6030
e038
e038
e038
e038
e038
6030
7070
38e0
0f80
ENDCHAR
STARTCHAR multiply
ENCODING 215
SWIDTH 570 0
DWIDTH 11 0
BBX 9 8 1 1
BITMAP
c180
6300
3600
1c00
1c00
3600
6300
c180
ENDCHAR
STARTCHAR Rcaron
ENCODING 216
SWIDTH 722 0
DWIDTH 13 0
BBX 12 17 1 0
BITMAP
2100
1e00
0c00
0000
ff00
7380
71c0
71c0
71c0
7380
7f00
7700
7380
71c0
71c0
70e0
f8f0
ENDCHAR
STARTCHAR Uring
ENCODING 217
SWIDTH 722 0
DWIDTH 13 0
BBX 12 18 1 0
BITMAP
0600
0900
0900
0600
0000
f8f0
7020
7020
7020
7020
7020
7020
7020
7020
7020
7060
38c0
1f80
ENDCHAR
STARTCHAR Uacute
ENCODING 218
SWIDTH 722 0
DWIDTH 13 0
BBX 12 17 1 0
BITMAP
00c0
0180
0200
0000
f8f0
7020
7020
7020
7020
7020
7020
7020
7020
7020
7060
38c0
1f80
ENDCHAR
STARTCHAR Udoubleacute
ENCODING 219
SWIDTH 722 0
DWIDTH 13 0
BBX 12 17 1 0
BITMAP
0770
0cc0
1100
0000
f8f0
7020
7020
7020
7020
7020
7020
7020
7020
7020
7060
38c0
1f80
ENDCHAR
STARTCHAR Udiaeresis
ENCODING 220
SWIDTH 722 0
DWIDTH 13 0
BBX 12 16 1 0
BITMAP
0cc0
0cc0
0000
f8f0
7020
7020
7020
7020
7020
7020
7020
7020
7020
7060
38c0
1f80
ENDCHAR
STARTCHAR Yacute
ENCODING 221
SWIDTH 722 0
DWIDTH 13 0
BBX 13 17 0 0
BITMAP
00c0
0180
0200
0000
fc78
7830
3860
3c40
1ec0
0e80
0f80
0700
0700
0700
0700
0700
1fc0
ENDCHAR
STARTCHAR Tcedilla
ENCODING 222
SWIDTH 667 0
DWIDTH 12 0
BBX 11 17 0 -4
BITMAP
ffe0
ce60
8e20
8e20
0e00
0e00
0e00
0e00
0e00
0e00
0e00
0e00
3f80
0400
0300
1300
0e00
ENDCHAR
STARTCHAR ssharp
ENCODING 223
SWIDTH 556 0
DWIDTH 10 0
BBX 9 13 0 0
BITMAP
1e00
3b00
7380
7380
7380
7700
7200
7300
7380
7380
7380
7380
f700
ENDCHAR
STARTCHAR racute
ENCODING 224
SWIDTH 444 0
DWIDTH 8 0
BBX 7 13 0 0
BITMAP
06
0c
10
00
ee
76
70
70
70
70
70
70
f8
ENDCHAR
STARTCHAR aacute
ENCODING 225
SWIDTH 500 0
DWIDTH 9 0
BBX 9 13 0 0
BITMAP
0600
0c00
1000
0000
3e00
e700
e700
0f00
7700
e700
e700
ff00
3b80
ENDCHAR
STARTCHAR acircumflex
ENCODING 226
SWIDTH 500 0
DWIDTH 9 0
BBX 9 13 0 0
BITMAP
0c00
1e00
2100
0000
3e00
e700
e700
0f00
7700
e700
e700
ff00
3b80
ENDCHAR
STARTCHAR abreve
ENCODING 227
SWIDTH 500 0
DWIDTH 9 0
BBX 9 13 0 0
BITMAP
4400
7c00
3800
0000
3e00
e700
e700
0f00
7700
e700
e700
ff00
3b80
ENDCHAR
STARTCHAR adiaeresis
ENCODING 228
SWIDTH 500 0
DWIDTH 9 0
BBX 9 12 0 0
BITMAP
3300
3300
0000
3e00
e700
e700
0f00
7700
e700
e700
ff00
3b80
ENDCHAR
STARTCHAR lacute
ENCODING 229
SWIDTH 278 0
DWIDTH 6 0
BBX 5 17 0 0
BITMAP
18
30
40
00
f0
70
70
70
70
70
70
70
70
70
70
70
f8
ENDCHAR
STARTCHAR cacute
ENCODING 230
SWIDTH 444 0
DWIDTH 8 0
BBX 7 13 0 0
BITMAP
06
0c
10
00
3e
76
e6
e0
e0
e0
e0
76
3c
ENDCHAR
STARTCHAR ccedilla
ENCODING 231
SWIDTH 444 0
DWIDTH 8 0
BBX 7 13 0 -4
BITMAP
3e
76
e6
e0
e0
e0
e0
76
3c
10
0c
4c
38
ENDCHAR
STARTCHAR ccaron
ENCODING 232
SWIDTH 444 0
DWIDTH 8 0
BBX 7 13 0 0
BITMAP
42
3c
18
00
3e
76
e6
e0
e0
e0
e0
76
3c
ENDCHAR
STARTCHAR eacute
ENCODING 233
SWIDTH 444 0
DWIDTH 8 0
BBX 7 13 0 0
BITMAP
06
0c
10
00
3c
76
e6
fe
e0
e0
e0
76
3c
ENDCHAR
STARTCHAR eogonek
ENCODING 234
SWIDTH 444 0
DWIDTH 8 0
BBX 8 13 0 -4
BITMAP
3c
66
e7
ff
e0
e0
e0
73
3e
10
24
3c
18
ENDCHAR
STARTCHAR ediaeresis
ENCODING 235
SWIDTH 444 0
DWIDTH 8 0
BBX 7 12 0 0
BITMAP
66
66
00
3c
76
e6
fe
e0
e0
e0
76
3c
ENDCHAR
STARTCHAR ecaron
ENCODING 236
SWIDTH 444 0
DWIDTH 8 0
BBX 8 13 0 0
BITMAP
42
3c
18
00
3c
66
e7
ff
e0
e0
e0
73
3e
ENDCHAR
STARTCHAR iacute
ENCODING 237
SWIDTH 278 0
DWIDTH 5 0
BBX 5 13 0 0
BITMAP
18
30
40
00
f0
70
70
70
70
70
70
70
f8
ENDCHAR
STARTCHAR icircumflex
ENCODING 238
SWIDTH 278 0
DWIDTH 5 0
BBX 6 13 0 0
BITMAP
30
78
84
00
f0
70
70
70
70
70
70
70
f8
ENDCHAR
STARTCHAR dcaron
ENCODING 239
SWIDTH 746 0
DWIDTH 14 0
BBX 13 15 0 0
BITMAP
0038
0038
0f38
0718
0730
0760
3700
7f00
e700
e700
e700
e700
e700
7700
3b80
ENDCHAR
STARTCHAR dstroke
ENCODING 240
SWIDTH 640 0
DWIDTH 12 0
BBX 11 13 0 0
BITMAP
0f00
0700
3fe0
0700
3700
7f00
e700
e700
e700
e700
e700
7700
3b80
ENDCHAR
STARTCHAR nacute
ENCODING 241
SWIDTH 556 0
DWIDTH 11 0
BBX 10 13 0 0
BITMAP
0300
0600
0800
0000
e700
7f80
7380
7380
7380
7380
7380
7380
fbc0
ENDCHAR
STARTCHAR ncaron
ENCODING 242
SWIDTH 556 0
DWIDTH 11 0
BBX 10 13 0 0
BITMAP
2100
1e00
0c00
0000
e700
7f80
7380
7380
7380
7380
7380
7380
fbc0
ENDCHAR
STARTCHAR oacute
ENCODING 243
SWIDTH 500 0
DWIDTH 9 0
BBX 8 13 0 0
BITMAP
06
0c
10
00
3c
66
e7
e7
e7
e7
e7
66
3c
ENDCHAR
STARTCHAR ocircumflex
ENCODING 244
SWIDTH 500 0
DWIDTH 9 0
BBX 8 13 0 0
BITMAP
18
3c
42
00
3c
66
e7
e7
e7
e7
e7
66
3c
ENDCHAR
STARTCHAR odoubleacute
ENCODING 245
SWIDTH 500 0
DWIDTH 9 0
BBX 10 13 0 0
BITMAP
1dc0
3300
4400
0000
3c00
6600
e700
e700
e700
e700
e700
6600
3c00
ENDCHAR
STARTCHAR odiaeresis
ENCODING 246
SWIDTH 500 0
DWIDTH 9 0
BBX 8 12 0 0
BITMAP
66
66
00
3c
66
e7
e7
e7
e7
e7
66
3c
ENDCHAR
STARTCHAR division
ENCODING 247
SWIDTH 570 0
DWIDTH 11 0
BBX 8 8 1 1
BITMAP
18
18
00
ff
ff
00
18
18
ENDCHAR
STARTCHAR rcaron
ENCODING 248
SWIDTH 444 0
DWIDTH 8 0
BBX 7 13 0 0
BITMAP
42
3c
18
00
ee
76
70
70
70
70
70
70
f8
ENDCHAR
STARTCHAR uring
ENCODING 249
SWIDTH 556 0
DWIDTH 11 0
BBX 10 14 0 0
BITMAP
0c00
1200
1200
0c00
0000
f780
7380
7380
7380
7380
7380
7380
7f80
3dc0
ENDCHAR
STARTCHAR uacute
ENCODING 250
SWIDTH 556 0
DWIDTH 11 0
BBX 10 13 0 0
BITMAP
0300
0600
0800
0000
f780
7380
7380
7380
7380
7380
7380
7f80
3dc0
ENDCHAR
STARTCHAR udoubleacute
ENCODING 251
SWIDTH 556 0
DWIDTH 11 0
BBX 11 13 0 0
BITMAP
0ee0
1980
2200
0000
f780
7380
7380
7380
7380
7380
7380
7f80
3dc0
ENDCHAR
STARTCHAR udiaeresis
ENCODING 252
SWIDTH 556 0
DWIDTH 11 0
BBX 10 12 0 0
BITMAP
3300
3300
0000
f780
7380
7380
7380
7380
7380
7380
7f80
3dc0
ENDCHAR
STARTCHAR yacute
ENCODING 253
SWIDTH 500 0
DWIDTH 9 0
BBX 10 17 -1 -4
BITMAP
0300
0600
0800
0000
fbc0
7180
7900
3b00
3a00
1e00
1e00
0c00
0c00
0c00
0800
d800
f000
ENDCHAR
STARTCHAR tcedilla
ENCODING 254
SWIDTH 333 0
DWIDTH 7 0
BBX 6 15 0 -4
BITMAP
10
30
fc
70
70
70
70
70
70
74
38
20
18
98
70
ENDCHAR
STARTCHAR abovedot
ENCODING 255
SWIDTH 333 0
DWIDTH 6 0
BBX 2 2 2 10
BITMAP
c0
c0
ENDCHAR
ENDFONT
